<svg width="64" height="64" viewBox="0 0 64 64" fill="none" xmlns="http://www.w3.org/2000/svg">
  <!-- Browser Window -->
  <rect x="8" y="12" width="48" height="40" rx="4" fill="#8EFF60" fill-opacity="0.1" stroke="#8EFF60" stroke-width="2"/>
  
  <!-- Browser Top Bar -->
  <rect x="8" y="12" width="48" height="8" rx="4" fill="#8EFF60" fill-opacity="0.2"/>
  
  <!-- Browser Dots -->
  <circle cx="14" cy="16" r="1.5" fill="#8EFF60"/>
  <circle cx="19" cy="16" r="1.5" fill="#8EFF60"/>
  <circle cx="24" cy="16" r="1.5" fill="#8EFF60"/>
  
  <!-- Globe Icon in Center -->
  <circle cx="32" cy="32" r="10" stroke="#8EFF60" stroke-width="2" fill="none"/>
  <path d="M32 22 C32 22, 28 27, 28 32 C28 37, 32 42, 32 42" stroke="#8EFF60" stroke-width="1.5" fill="none"/>
  <path d="M32 22 C32 22, 36 27, 36 32 C36 37, 32 42, 32 42" stroke="#8EFF60" stroke-width="1.5" fill="none"/>
  <line x1="22" y1="32" x2="42" y2="32" stroke="#8EFF60" stroke-width="1.5"/>
  <line x1="24" y1="27" x2="40" y2="27" stroke="#8EFF60" stroke-width="1.5"/>
  <line x1="24" y1="37" x2="40" y2="37" stroke="#8EFF60" stroke-width="1.5"/>
</svg>

